<svg width="16" height="20" viewBox="0 0 16 20" fill="none" xmlns="http://www.w3.org/2000/svg">
<path d="M10.1333 8.3L7.77778 10.6556L5.41111 8.3L3.84444 9.86667L6.21111 12.2222L3.85556 14.5778L5.42222 16.1444L7.77778 13.7889L10.1333 16.1444L11.7 14.5778L9.34444 12.2222L11.7 9.86667L10.1333 8.3ZM11.6667 1.11111L10.5556 0H5L3.88889 1.11111H0V3.33333H15.5556V1.11111H11.6667ZM1.11111 17.7778C1.11111 18.3671 1.34524 18.9324 1.76198 19.3491C2.17873 19.7659 2.74396 20 3.33333 20H12.2222C12.8116 20 13.3768 19.7659 13.7936 19.3491C14.2103 18.9324 14.4444 18.3671 14.4444 17.7778V4.44444H1.11111V17.7778ZM3.33333 6.66667H12.2222V17.7778H3.33333V6.66667Z" fill="white"/>
</svg>
